# AST/ASF file generated using VICON BodyLanguage
# -----------------------------------------------
:version 1.10
:name VICON
:units
  mass 1.0
  length 0.45
  angle deg
:documentation
   .ast/.asf automatically generated from VICON data using
   VICON BodyBuilder and BodyLanguage model FoxedUp or BRILLIANT.MOD
:root
   order TX TY TZ RX RY RZ
   axis XYZ
   position 0 0 0  
   orientation 0 0 0 
:bonedata
  begin
     id 1 
     name lhipjoint
     direction 0.584852 -0.759097 0.285867 
     length 2.43633 
     axis 0 0 0  XYZ
  end
  begin
     id 2 
     name lfemur
     direction 0.34202 -0.939693 0  
     length 7.14704  
     axis 0 0 20  XYZ
    dof rx ry rz
    limits (-160.0 20.0)
           (-70.0 70.0)
           (-60.0 70.0)
  end
  begin
     id 3 
     name ltibia
     direction 0.342022 -0.939692 0   
     length 7.68483   
     axis 0 0 20   XYZ
    dof rx
    limits (-10.0 170.0)
  end
  begin
     id 4 
     name lfoot
     direction 0.0999605 -0.274639 0.956337   
     length 2.40452   
     axis -90 7.62852e-016 20   XYZ
    dof rx rz
    limits (-45.0 90.0)
           (-70.0 20.0)
  end
  begin
     id 5 
     name ltoes
     direction 1.53468e-011 -4.21881e-011 1   
     length 1.19837   
     axis -90 7.62852e-016 20   XYZ
    dof rx
    limits (-90.0 20.0)
  end
  begin
     id 6 
     name rhipjoint
     direction -0.569886 -0.769002 0.289597   
     length 2.40495  
     axis 0 0 0  XYZ 
  end
  begin
     id 7 
     name rfemur
     direction -0.34202 -0.939693 0   
     length 7.45086   
     axis 0 0 -20   XYZ
    dof rx ry rz
    limits (-160.0 20.0)
           (-70.0 70.0)
           (-70.0 60.0)
  end
  begin
     id 8 
     name rtibia
     direction -0.34202 -0.939693 0   
     length 7.76831   
     axis 0 0 -20   XYZ
    dof rx
    limits (-10.0 170.0)
 end
 begin
     id 9 
     name rfoot
     direction -0.0798572 -0.219406 0.97236   
     length 2.35911  
     axis -90 -7.62852e-016 -20   XYZ
    dof rx rz
    limits (-45.0 90.0)
           (-20.0 70.0)
  end
  begin
     id 10 
     name rtoes
     direction -1.53469e-011 -4.21728e-011 1   
     length 1.18261   
     axis -90 -7.62852e-016 -20   XYZ
    dof rx
    limits (-90.0 20.0)
  end
  begin
     id 11 
     name lowerback
     direction 0.0242088 0.999437 0.0232389   
     length 2.1561   
     axis 0 0 0   XYZ
    dof rx ry rz
    limits (-20.0 45.0)
           (-30.0 30.0)
           (-30.0 30.0)
  end
  begin
     id 12 
     name upperback
     direction -0.0356893 0.999013 -0.0264323   
     length 2.14431   
     axis 0 0 0   XYZ
    dof rx ry rz
    limits (-20.0 45.0)
           (-30.0 30.0)
           (-30.0 30.0)
  end
  begin
     id 13 
     name thorax
     direction -0.0472163 0.998194 -0.0371284   
     length 2.16169   
     axis 0 0 0   XYZ
    dof rx ry rz
    limits (-20.0 45.0)
           (-30.0 30.0)
           (-30.0 30.0)
  end
  begin
     id 14 
     name lowerneck
     direction 0.00863244 0.999921 0.00911972   
     length 1.58651   
     axis 0 0 0   XYZ
    dof rx ry rz
    limits (-20.0 45.0)
           (-30.0 30.0)
           (-30.0 30.0)
  end
  begin
     id 15 
     name upperneck
     direction 0.149523 0.979068 -0.138086   
     length 1.57486   
     axis 0 0 0   XYZ
    dof rx ry rz
    limits (-20.0 45.0)
           (-30.0 30.0)
           (-30.0 30.0)
  end
  begin
     id 16
     name head
     direction 0.0445219 0.997708 -0.0509576  
     length 1.6019  
     axis 0 0 0   XYZ
    dof rx ry rz
    limits (-20.0 45.0)
           (-30.0 30.0)
           (-30.0 30.0)
  end
  begin
     id 17 
     name lclavicle
     direction 0.911271 0.381667 -0.154644  
     length 3.80848  
     axis 0 0 0   XYZ
    dof ry rz
    limits (-20.0 10.0)
           (0.0 20.0)
  end
  begin
     id 18 
     name lhumerus
     direction 1 -4.49003e-011 2.1308e-027   
     length 5.19069   
     axis 180 -30 -90   XYZ
    dof rx ry rz
    limits (-60.0 90.0)
           (-90.0 90.0)
           (-90.0 90.0)
  end
  begin
     id 19
     name lradius
     direction 1 -4.48914e-011 4.01554e-027   
     length 3.30016   
     axis 180 -30 -90   XYZ
    dof rx
    limits (-10.0 170.0)
  end
  begin
     id 20
     name lwrist
     direction 1 -4.49003e-011 1.1934e-026   
     length 1.65008   
     axis -8.46377e-015 90 90   XYZ
    dof ry
    limits (-180.0 0.0)
 end
  begin
     id 21 
     name lhand
     direction 1 -4.49034e-011 2.38659e-026   
     length 0.707698   
     axis -1.52313e-014 90 90   XYZ
    dof rx rz
    limits (-90.0 90.0)
           (-45.0 45.0)
  end
  begin
     id 22 
     name lfingers
     direction 1 -4.48691e-011 4.77775e-026   
     length 0.570564   
     axis -3.04623e-014 90 90   XYZ
    dof rx
    limits (0.0 90.0)
  end
  begin
     id 23
     name lthumb
     direction 0.707107 -6.34832e-011 0.707107   
     length 0.819219   
     axis -90 45 -1.62303e-014   XYZ
    dof rx rz
    limits (-45.0 45.0)
           (-45.0 45.0)
  end
  begin
     id 24 
     name rclavicle
     direction -0.815579 0.573708 -0.0754329   
     length 3.54371  
     axis 0 0 0   XYZ 
    dof ry rz
    limits (-10.0 20.0)
           (-20.0 0.0)
  end
  begin
     id 25 
     name rhumerus
     direction -1 -4.48956e-011 3.05351e-028  
     length 5.23924   
     axis 180 30 90   XYZ
    dof rx ry rz
    limits (-90.0 60.0)
           (-90.0 90.0)
           (-90.0 90.0)
  end
  begin
     id 26 
     name rradius
     direction -1 -4.49013e-011 3.53849e-027   
     length 3.32953   
     axis 180 30 90   XYZ
    dof rx
    limits (-10.0 170.0)
  end
  begin
     id 27 
     name rwrist
     direction -1 -4.48901e-011 1.19374e-026   
     length 1.66477   
     axis -8.46377e-015 -90 -90   XYZ
    dof ry
    limits (-180.0 0.0)
  end
  begin
     id 28
     name rhand
     direction -1 -4.48877e-011 2.38764e-026   
     length 0.607414   
     axis -1.52313e-014 -90 -90   XYZ
    dof rx rz
    limits (-90.0 90.0)
           (-45.0 45.0)
  end
  begin
     id 29
     name rfingers
     direction -1 -4.48882e-011 4.77521e-026   
     length 0.489712   
     axis -3.04623e-014 -90 -90   XYZ
    dof rx
    limits (0.0 90.0)
  end
  begin
     id 30
     name rthumb
     direction -0.707107 -6.34974e-011 0.707107   
     length 0.703132   
     axis -90 -45 1.62303e-014   XYZ
    dof rx rz
    limits (-45.0 45.0)
           (-45.0 45.0)
  end
:hierarchy
  begin
    root lhipjoint rhipjoint lowerback
    lhipjoint lfemur
    lfemur ltibia
    ltibia lfoot
    lfoot ltoes
    rhipjoint rfemur
    rfemur rtibia
    rtibia rfoot
    rfoot rtoes
    lowerback upperback
    upperback thorax
    thorax lowerneck lclavicle rclavicle
    lowerneck upperneck
    upperneck head
    lclavicle lhumerus
    lhumerus lradius
    lradius lwrist
    lwrist lhand lthumb
    lhand lfingers
    rclavicle rhumerus
    rhumerus rradius
    rradius rwrist
    rwrist rhand rthumb
    rhand rfingers
  end

#!OML:ASF E:\VariousWalksJay\Project 1\Capture day 1\Session 1\Actor2.ASF
:FULLY-SPECIFIED
:DEGREES
414
root -3.44756 16.5905 -8.4124 0.331587 18.0453 -10.4517
lowerback 1.8621 -2.96771 2.71167
upperback 3.87835 -3.86362 -3.79567
thorax 2.51541 -1.79915 -5.45082
lowerneck -8.91119 -1.05596 -1.66085
upperneck 0.891507 -1.91203 19.297
head 2.01221 -0.416092 6.08382
rclavicle -7.03698e-014 -3.18055e-015
rhumerus -38.3094 13.7811 -97.7437
rradius 39.6102
rwrist -11.5941
rhand -22.4969 -3.06922
rfingers 7.12502
rthumb 3.92898 -33.0127
lclavicle -7.03698e-014 -3.18055e-015
lhumerus -26.4444 -16.5748 84.5952
lradius 37.1886
lwrist 21.384
lhand -18.0204 -10.7244
lfingers 7.12502
lthumb 8.25067 19.0945
rfemur -30.6935 -3.1024 26.9105
rtibia 68.1502
rfoot -17.6044 -9.64433
rtoes -21.9715
lfemur -18.9286 13.7184 -9.22214
ltibia 50.6678
lfoot -34.5471 11.3799
ltoes -9.31251
415
root -3.39421 16.5937 -8.39929 0.406214 18.0378 -10.1986
lowerback 1.97545 -3.1233 2.52475
upperback 3.87357 -4.06966 -3.80397
thorax 2.43491 -1.90921 -5.34409
lowerneck -8.73206 -0.945728 -1.58508
upperneck 0.463689 -1.69168 19.2982
head 1.83195 -0.34315 6.07836
rclavicle -1.19271e-015 -1.90833e-014
rhumerus -39.1197 13.8752 -97.5858
rradius 38.4993
rwrist -10.9382
rhand -22.8238 -2.73
rfingers 7.12502
rthumb 3.61322 -32.6791
lclavicle -1.19271e-015 -1.90833e-014
lhumerus -25.6251 -18.0934 85.2248
lradius 39.1966
lwrist 22.144
lhand -17.674 -11.6308
lfingers 7.12502
lthumb 8.58491 18.1746
rfemur -32.2181 -3.26098 26.4299
rtibia 70.4622
rfoot -16.2878 -9.76088
rtoes -20.7459
lfemur -18.622 13.9278 -9.61442
ltibia 50.3395
lfoot -34.6065 11.0778
ltoes -9.21554
416
root -3.33921 16.6024 -8.38176 0.485231 18.0711 -9.98746
lowerback 2.04293 -3.2843 2.40888
upperback 3.85927 -4.28458 -3.78766
thorax 2.36764 -2.02201 -5.25361
lowerneck -8.55004 -0.845867 -1.51504
upperneck 0.0682967 -1.48966 19.2915
head 1.66284 -0.277798 6.07036
rclavicle 4.45278e-014 4.13472e-014
rhumerus -40.032 14.0563 -97.4603
rradius 37.4387
rwrist -10.2441
rhand -22.812 -2.41134
rfingers 7.12502
rthumb 3.62467 -32.3603
lclavicle 4.45278e-014 4.13472e-014
lhumerus -24.7792 -19.7135 85.7742
lradius 41.4705
lwrist 22.9375
lhand -17.2097 -12.5375
lfingers 7.12502
lthumb 9.03299 17.2491
rfemur -33.75 -3.43923 26.012
rtibia 72.712
rfoot -15.28 -9.95667
rtoes -19.599
lfemur -18.2913 14.0859 -9.96651
ltibia 49.9357
lfoot -34.6285 10.7673
ltoes -9.09541
417
root -3.28261 16.6168 -8.35938 0.555767 18.1444 -9.82562
lowerback 2.07466 -3.45233 2.3692
upperback 3.83927 -4.51005 -3.7448
thorax 2.31099 -2.13839 -5.17991
lowerneck -8.37788 -0.752521 -1.45122
upperneck -0.287848 -1.30242 19.2768
head 1.5086 -0.217105 6.0602
rclavicle 6.44062e-014 9.54166e-015
rhumerus -41.044 14.3333 -97.3789
rradius 36.4445
rwrist -9.55247
rhand -22.4777 -2.11214
rfingers 7.12502
rthumb 3.94748 -32.0553
lclavicle 6.44062e-014 9.54166e-015
lhumerus -23.8941 -21.3994 86.2196
lradius 43.9866
lwrist 23.7841
lhand -16.6849 -13.4012
lfingers 7.12502
lthumb 9.53937 16.3629
rfemur -35.2593 -3.63244 25.6672
rtibia 74.8807
rfoot -14.5985 -10.2004
rtoes -18.6968
lfemur -17.9164 14.1767 -10.2679
ltibia 49.4466
lfoot -34.6112 10.4638
ltoes -8.96222
418
root -3.22443 16.6368 -8.33208 0.610975 18.2523 -9.70929
lowerback 2.08128 -3.6269 2.40121
upperback 3.81231 -4.7451 -3.6781
thorax 2.25736 -2.25819 -5.1226
lowerneck -8.21405 -0.662961 -1.3846
upperneck -0.598559 -1.128 19.2457
head 1.37032 -0.159892 6.04376
rclavicle -2.50469e-014 6.36111e-015
rhumerus -42.1689 14.705 -97.3546
rradius 35.543
rwrist -8.87061
rhand -21.8369 -1.81007
rfingers 7.12502
rthumb 4.56628 -31.7409
lclavicle -2.50469e-014 6.36111e-015
lhumerus -22.966 -23.1094 86.5406
lradius 46.7134
lwrist 24.6746
lhand -16.1463 -14.2086
lfingers 7.12502
lthumb 10.059 15.531
rfemur -36.7267 -3.82989 25.392
rtibia 76.9589
rfoot -14.2063 -10.4732
rtoes -18.1205
lfemur -17.4815 14.193 -10.5215
ltibia 48.8642
lfoot -34.5559 10.1797
ltoes -8.81054
419
root -3.16506 16.6624 -8.29984 0.646692 18.3889 -9.63097
lowerback 2.07033 -3.80723 2.49006
upperback 3.78118 -4.98851 -3.58864
thorax 2.20612 -2.38114 -5.07412
lowerneck -8.06697 -0.572834 -1.31504
upperneck -0.862277 -0.961154 19.1974
head 1.24932 -0.10296 6.02113
rclavicle 9.93923e-015 -1.90833e-014
rhumerus -43.4022 15.1662 -97.3913
rradius 34.7472
rwrist -8.17028
rhand -20.8884 -1.49741
rfingers 7.12502
rthumb 5.48213 -31.4065
lclavicle 9.93923e-015 -1.90833e-014
lhumerus -21.9812 -24.8093 86.7214
lradius 49.6187
lwrist 25.5888
lhand -15.5778 -14.9299
lfingers 7.12502
lthumb 10.6074 14.7824
rfemur -38.1396 -4.02519 25.1803
rtibia 78.9435
rfoot -14.036 -10.7544
rtoes -17.8577
lfemur -16.9754 14.1255 -10.7337
ltibia 48.1848
lfoot -34.4652 9.92881
ltoes -8.63809
